{"asset":{"version":"2.0","generator":"THREE.GLTFExporter r169"},"scenes":[{"name":"AuxScene","nodes":[1]}],"scene":0,"nodes":[{"name":"Cardboard_Boxes_1","extras":{"name":"Cardboard Boxes","associations":{"meshes":0,"primitives":0,"nodes":0},"variantData":{}},"mesh":0},{"name":"Cardboard_Boxes","children":[0]}],"bufferViews":[{"buffer":0,"byteOffset":0,"byteLength":15096,"target":34962,"byteStride":12},{"buffer":0,"byteOffset":15096,"byteLength":10064,"target":34962,"byteStride":8},{"buffer":0,"byteOffset":25160,"byteLength":15096,"target":34962,"byteStride":12},{"buffer":0,"byteOffset":40256,"byteLength":3972,"target":34963}],"buffers":[{"byteLength":44228,"uri":"data:application/octet-stream;base64,"}],"accessors":[{"bufferView":0,"componentType":5126,"count":1258,"max":[0.3241007626056671,0.4840368330478668,0.5288821458816528],"min":[-0.4563034474849701,-0.0017951002810150385,-0.3662562072277069],"type":"VEC3"},{"bufferView":1,"componentType":5126,"count":1258,"max":[1,1],"min":[0,0.006822526454925537],"type":"VEC2"},{"bufferView":2,"componentType":5126,"count":1258,"max":[1,1,1],"min":[-1,-1,-1],"type":"VEC3"},{"bufferView":3,"componentType":5123,"count":1986,"max":[1257],"min":[0],"type":"SCALAR"}],"materials":[{"pbrMetallicRoughness":{"metallicFactor":1,"roughnessFactor":1,"metallicRoughnessTexture":{"index":0,"channel":0},"baseColorTexture":{"index":1,"texCoord":0}},"normalTexture":{"index":2,"texCoord":0},"doubleSided":true,"name":"Cardboard Boxes","extras":{"associations":{"materials":0}}}],"textures":[{"sampler":0,"source":0,"name":"Cardboard Boxes_Metallic-Cardboard Boxes_Roughness"},{"sampler":1,"source":1,"name":"Cardboard Boxes_BaseColor"},{"sampler":2,"source":2,"name":"Cardboard Boxes_Normal"}],"samplers":[{"magFilter":9729,"minFilter":9987,"wrapS":10497,"wrapT":10497},{"magFilter":9729,"minFilter":9987,"wrapS":10497,"wrapT":10497},{"magFilter":9729,"minFilter":9987,"wrapS":10497,"wrapT":10497}],"images":[{"mimeType":"image/png","uri":"data:image/png;base64,"},{"mimeType":"image/png","uri":"data:image/png;base64,"},{"mimeType":"image/png","uri":"data:image/png;base64,"}],"meshes":[{"primitives":[{"mode":4,"attributes":{"POSITION":0,"TEXCOORD_0":1,"NORMAL":2},"indices":3,"material":0}]}]}